<?xml version="1.0" encoding="UTF-8" standalone="no"?>
<svg width="56px" height="45px" viewBox="0 0 56 45" version="1.1" xmlns="http://www.w3.org/2000/svg" xmlns:xlink="http://www.w3.org/1999/xlink">
    <!-- Generator: Sketch 3.8.2 (29753) - http://www.bohemiancoding.com/sketch -->
    <title>Group 4</title>
    <desc>Created with Sketch.</desc>
    <defs></defs>
    <g id="Page-1" stroke="none" stroke-width="1" fill="none" fill-rule="evenodd" stroke-linecap="round" stroke-linejoin="round">
        <g id="Artboard-2-Copy-3" transform="translate(-772.000000, -604.000000)" stroke-width="2" stroke="#A02D4F">
            <g id="Group-4" transform="translate(773.000000, 605.000000)">
                <g id="Group-2">
                    <path d="M11.3619483,12.9567773 C11.3619483,8.84166425 18.4243128,1.22734989 29.0885892,0.884345919 L28.9471302,0.00113405267 C12.068281,-0.135319844 0,12.0651539 0,24.2058123 C0,36.89509 8.53950445,43 17.7179802,43 C26.6164248,43 33.75,36.2782437 33.75,27.5666904 C33.75,15.6316475 22.8740163,9.39028369 11.3619483,12.9567773" id="Fill-1-Copy"></path>
                    <path d="M49.3397851,0.884345919 L49.1983624,0.00113405267 C32.3238434,-0.135319844 20.25,12.0651539 20.25,24.2058123 C20.25,36.89509 28.793086,43 37.9720932,43 C46.8682549,43 54,36.2782437 54,27.5666904 C54,15.6316475 43.1258445,9.39028369 31.6176919,12.9567773 C31.6176919,8.84166425 38.6782446,1.22734989 49.3397851,0.884345919 Z" id="Path"></path>
                </g>
            </g>
        </g>
    </g>
</svg>